<?xml version="1.0" encoding="UTF-8" standalone="no"?>
<!-- Created with Inkscape (http://www.inkscape.org/) -->

<svg
   width="66.116386mm"
   height="57.336143mm"
   viewBox="0 0 66.116386 57.336143"
   version="1.1"
   id="svg1"
   sodipodi:docname="favicon.svg"
   inkscape:version="1.3.2 (091e20e, 2023-11-25)"
   xmlns:inkscape="http://www.inkscape.org/namespaces/inkscape"
   xmlns:sodipodi="http://sodipodi.sourceforge.net/DTD/sodipodi-0.dtd"
   xmlns="http://www.w3.org/2000/svg"
   xmlns:svg="http://www.w3.org/2000/svg">
  <sodipodi:namedview
     id="namedview1"
     pagecolor="#ffffff"
     bordercolor="#000000"
     borderopacity="0.25"
     inkscape:showpageshadow="2"
     inkscape:pageopacity="0.0"
     inkscape:pagecheckerboard="0"
     inkscape:deskcolor="#d1d1d1"
     inkscape:document-units="mm"
     inkscape:zoom="1.081948"
     inkscape:cx="95.19866"
     inkscape:cy="106.28977"
     inkscape:window-width="1312"
     inkscape:window-height="449"
     inkscape:window-x="0"
     inkscape:window-y="38"
     inkscape:window-maximized="0"
     inkscape:current-layer="layer1" />
  <defs
     id="defs1" />
  <g
     inkscape:label="Layer 1"
     inkscape:groupmode="layer"
     id="layer1"
     transform="translate(-4.4890144,11.622591)">
    <rect
       style="fill:#644197;fill-opacity:1;fill-rule:evenodd;stroke:#ecace7;stroke-width:0.264583;stroke-opacity:0.795745"
       id="rect27"
       width="66.271278"
       height="57.956806"
       x="3.9999275"
       y="-11.867134" />
    <path
       d="M 12.774386,7.3245006 V 1.6800605 h -7.52592 v 5.6444401 z m 0,-6.2716001 v -5.6444401 h -7.52592 v 5.6444401 z m 8.15308,31.3580005 v -5.64444 h -7.52592 v 5.64444 z m 0,-6.2716 v -5.64444 h -7.52592 v 5.64444 z m 0,-6.2716 v -5.64444 h -7.52592 v 5.64444 z m 0,-12.5432004 V 1.6800605 h -7.52592 v 5.6444401 z m 0,-6.2716001 v -5.6444401 h -7.52592 v 5.6444401 z m 8.15308,6.2716001 V 1.6800605 h -7.52592 v 5.6444401 z m 0,-6.2716001 v -5.6444401 h -7.52592 v 5.6444401 z m 8.78024,44.5283605 H 4.6213059 V -11.4903 H 37.860786 Z m -0.62716,-6.89876 v -5.64444 h -7.52592 v 5.64444 z m 0,-6.2716 v -5.64444 h -7.52592 v 5.64444 z m 0,-6.2716 v -5.64444 h -7.52592 v 5.64444 z m 0,-6.2716 v -5.64444 h -7.52592 v 5.64444 z m 0,-6.2716 V 7.9516606 h -7.52592 v 5.6444404 z m 0,-6.2716004 V 1.6800605 h -7.52592 v 5.6444401 z m 0,-6.2716001 v -5.6444401 h -7.52592 V 1.0529005 Z M 20.927466,44.954101 v -5.64444 h -7.52592 v 5.64444 z m 8.15308,0 v -5.64444 h -7.52592 v 5.64444 z m 8.15308,0 v -5.64444 h -7.52592 v 5.64444 z M 12.774386,-5.2186996 V -10.86314 h -7.52592 v 5.6444404 z m 8.15308,0 V -10.86314 h -7.52592 v 5.6444404 z m 8.15308,0 V -10.86314 h -7.52592 v 5.6444404 z m 8.15308,0 V -10.86314 h -7.52592 v 5.6444404 z m -8.15308,43.9012006 v -5.64444 h -7.52592 v 5.64444 z m 0,-25.0864 V 7.9516606 h -7.52592 V 13.596101 Z M 45.38671,7.3245006 V 1.6800605 h -7.52592 v 5.6444401 z m 0,-6.2716001 v -5.6444401 h -7.52592 v 5.6444401 z m 8.15308,31.3580005 v -5.64444 h -7.52592 v 5.64444 z m 0,-6.2716 v -5.64444 h -7.52592 v 5.64444 z m 0,-6.2716 v -5.64444 h -7.52592 v 5.64444 z m 0,-12.5432004 V 1.6800605 h -7.52592 v 5.6444401 z m 0,-6.2716001 v -5.6444401 h -7.52592 v 5.6444401 z m 8.15308,6.2716001 V 1.6800605 h -7.52592 v 5.6444401 z m 0,-6.2716001 V -4.5915396 H 54.16695 V 1.0529005 Z M 70.47311,45.581261 H 37.23363 V -11.4903 h 33.23948 z m -0.62716,-6.89876 v -5.64444 h -7.52592 v 5.64444 z m 0,-6.2716 v -5.64444 h -7.52592 v 5.64444 z m 0,-6.2716 v -5.64444 h -7.52592 v 5.64444 z m 0,-6.2716 v -5.64444 h -7.52592 v 5.64444 z m 0,-6.2716 V 7.9516606 h -7.52592 v 5.6444404 z m 0,-6.2716004 V 1.6800605 h -7.52592 v 5.6444401 z m 0,-6.2716001 V -4.5915396 H 62.32003 V 1.0529005 Z M 53.53979,44.954101 v -5.64444 h -7.52592 v 5.64444 z m 8.15308,0 v -5.64444 h -7.52592 v 5.64444 z m 8.15308,0 v -5.64444 h -7.52592 v 5.64444 z M 45.38671,-5.2186996 V -10.86314 h -7.52592 v 5.6444404 z m 8.15308,0 V -10.86314 h -7.52592 v 5.6444404 z m 8.15308,0 V -10.86314 h -7.52592 v 5.6444404 z m 8.15308,0 V -10.86314 h -7.52592 v 5.6444404 z M 61.69287,38.682501 v -5.64444 h -7.52592 v 5.64444 z m 0,-25.0864 V 7.9516606 h -7.52592 v 5.6444404 z"
       id="text19"
       style="font-size:56.4444px;font-family:Gridtile;-inkscape-font-specification:'Gridtile, Normal';fill:#fa9ed6;fill-rule:evenodd;stroke:#ecace7;stroke-width:0.264583;stroke-opacity:0.795745;fill-opacity:1"
       aria-label="pp" />
    <path
       style="fill:#6be2a9;fill-opacity:1;fill-rule:evenodd;stroke:#ecace7;stroke-width:0.924259;stroke-opacity:0.795745"
       d="m 34.197576,131.70688 v -9.70472 h 13.401753 13.401753 v 9.70472 9.70472 H 47.599329 34.197576 Z"
       id="path19"
       transform="matrix(0.26458333,0,0,0.26458333,4.4890144,-11.622591)" />
    <path
       style="fill:#6be2a9;fill-opacity:1;fill-rule:evenodd;stroke:#ecace7;stroke-width:0.924259;stroke-opacity:0.795745"
       d="m 163.82488,142.57311 c 3.93965,-0.17325 10.38636,-0.17325 14.32601,0 3.93965,0.17325 0.7163,0.315 -7.16301,0.315 -7.8793,0 -11.10266,-0.14175 -7.163,-0.315 z"
       id="path20"
       transform="matrix(0.26458333,0,0,0.26458333,4.4890144,-11.622591)" />
    <path
       style="fill:#6be2a9;fill-opacity:1;fill-rule:evenodd;stroke:#ecace7;stroke-width:0.924259;stroke-opacity:0.795745"
       d="m 158.04826,131.70688 v -9.70472 h 13.40175 13.40175 v 9.70472 9.70472 h -13.40175 -13.40175 z"
       id="path21"
       transform="matrix(0.26458333,0,0,0.26458333,4.4890144,-11.622591)" />
    <path
       style="fill:#6be2a9;fill-opacity:1;fill-rule:evenodd;stroke:#ecace7;stroke-width:0.924259;stroke-opacity:0.795745"
       d="M 3.6970353,37.432482 V 27.727765 H 17.098788 30.500541 V 37.432482 47.1372 H 17.098788 3.6970353 Z"
       id="path22"
       transform="matrix(0.26458333,0,0,0.26458333,4.4890144,-11.622591)" />
    <path
       style="fill:#6be2a9;fill-opacity:1;fill-rule:evenodd;stroke:#ecace7;stroke-width:0.924259;stroke-opacity:0.795745"
       d="M 34.197576,37.432482 V 27.727765 H 47.599329 61.001082 V 37.432482 47.1372 H 47.599329 34.197576 Z"
       id="path23"
       transform="matrix(0.26458333,0,0,0.26458333,4.4890144,-11.622591)" />
    <path
       style="fill:#6be2a9;fill-opacity:1;fill-rule:evenodd;stroke:#ecace7;stroke-width:0.924259;stroke-opacity:0.795745"
       d="M 65.622376,37.432482 V 27.727765 H 79.024129 92.425882 V 37.432482 47.1372 H 79.024129 65.622376 Z"
       id="path24"
       transform="matrix(0.26458333,0,0,0.26458333,4.4890144,-11.622591)" />
    <path
       style="fill:#6be2a9;fill-opacity:1;fill-rule:evenodd;stroke:#ecace7;stroke-width:0.924259;stroke-opacity:0.795745"
       d="m 126.62346,37.432482 v -9.704717 h 13.40175 13.40175 v 9.704717 9.704718 h -13.40175 -13.40175 z"
       id="path25"
       transform="matrix(0.26458333,0,0,0.26458333,4.4890144,-11.622591)" />
    <path
       style="fill:#6be2a9;fill-opacity:1;fill-rule:evenodd;stroke:#ecace7;stroke-width:0.924259;stroke-opacity:0.795745"
       d="m 158.04826,37.432482 v -9.704717 h 13.40175 13.40175 v 9.704717 9.704718 h -13.40175 -13.40175 z"
       id="path26"
       transform="matrix(0.26458333,0,0,0.26458333,4.4890144,-11.622591)" />
    <path
       style="fill:#6be2a9;fill-opacity:1;fill-rule:evenodd;stroke:#ecace7;stroke-width:0.924259;stroke-opacity:0.795745"
       d="m 188.5488,37.432482 v -9.704717 h 13.40175 13.40176 V 37.432482 47.1372 H 201.95055 188.5488 Z"
       id="path27"
       transform="matrix(0.26458333,0,0,0.26458333,4.4890144,-11.622591)" />
  </g>
</svg>
