<?xml version="1.0" encoding="UTF-8" standalone="no"?>
<!-- Created with Inkscape (http://www.inkscape.org/) -->

<svg
   width="318.59698mm"
   height="57.071999mm"
   viewBox="0 0 318.59699 57.071998"
   version="1.1"
   id="svg1"
   sodipodi:docname="logo.svg"
   inkscape:version="1.3.2 (091e20e, 2023-11-25)"
   xmlns:inkscape="http://www.inkscape.org/namespaces/inkscape"
   xmlns:sodipodi="http://sodipodi.sourceforge.net/DTD/sodipodi-0.dtd"
   xmlns="http://www.w3.org/2000/svg"
   xmlns:svg="http://www.w3.org/2000/svg">
  <sodipodi:namedview
     id="namedview1"
     pagecolor="#ffffff"
     bordercolor="#000000"
     borderopacity="0.25"
     inkscape:showpageshadow="2"
     inkscape:pageopacity="0.0"
     inkscape:pagecheckerboard="0"
     inkscape:deskcolor="#d1d1d1"
     inkscape:document-units="mm"
     inkscape:zoom="0.91630093"
     inkscape:cx="611.6986"
     inkscape:cy="156.60794"
     inkscape:window-width="1512"
     inkscape:window-height="916"
     inkscape:window-x="0"
     inkscape:window-y="38"
     inkscape:window-maximized="1"
     inkscape:current-layer="layer1" />
  <defs
     id="defs1">
    <clipPath
       clipPathUnits="userSpaceOnUse"
       id="clipPath9">
      <rect
         style="fill:#823c3c;fill-opacity:1;stroke-width:0.411652"
         id="rect9"
         width="318.59698"
         height="57.071999"
         x="62.815498"
         y="25.259071"
         ry="1.2029716" />
    </clipPath>
  </defs>
  <g
     inkscape:label="Layer 1"
     inkscape:groupmode="layer"
     id="layer1"
     transform="translate(-62.815498,-25.259071)">
    <path
       d="m 79.229889,75.215662 v -5.64444 h -7.52592 v 5.64444 z m 0,-6.2716 v -5.64444 h -7.52592 v 5.64444 z m 0,-6.2716 v -5.64444 h -7.52592 v 5.64444 z m 0,-6.2716 v -5.64444 h -7.52592 v 5.64444 z m 0,-6.2716 v -5.64444 h -7.52592 v 5.64444 z m 0,-6.2716 v -5.64444 h -7.52592 v 5.64444 z m 0,-6.2716 v -5.64444 h -7.52592 v 5.64444 z m 0.62716,44.52836 H 62.923729 V 25.042861 h 16.93332 z m -0.62716,-0.62716 v -5.64444 h -7.52592 v 5.64444 z m 0,-50.1728 v -5.64444 h -7.52592 v 5.64444 z m 8.153082,25.0864 v -5.64444 h -7.52592 v 5.64444 z m 0,-12.5432 v -5.64444 h -7.52592 v 5.64444 z m 0,-6.2716 v -5.64444 h -7.52592 v 5.64444 z m 8.15308,31.358 v -5.64444 h -7.52592 v 5.64444 z m 0,-12.5432 v -5.64444 h -7.52592 v 5.64444 z m 0,-12.5432 v -5.64444 h -7.52592 v 5.64444 z m 0,-6.2716 v -5.64444 h -7.52592 v 5.64444 z m 8.153079,6.2716 v -5.64444 h -7.525919 v 5.64444 z m 0,-6.2716 v -5.64444 h -7.525919 v 5.64444 z m 8.78024,44.52836 H 79.229891 V 25.042861 h 33.239479 z m -0.62716,-6.89876 v -5.64444 h -7.52592 v 5.64444 z m 0,-6.2716 v -5.64444 h -7.52592 v 5.64444 z m 0,-6.2716 v -5.64444 h -7.52592 v 5.64444 z m 0,-6.2716 v -5.64444 h -7.52592 v 5.64444 z m 0,-6.2716 v -5.64444 h -7.52592 v 5.64444 z m 0,-6.2716 v -5.64444 h -7.52592 v 5.64444 z m 0,-6.2716 v -5.64444 h -7.52592 v 5.64444 z m -24.459239,43.9012 v -5.64444 h -7.52592 v 5.64444 z m 8.15308,0 v -5.64444 h -7.52592 v 5.64444 z m 8.153079,0 v -5.64444 h -7.525919 v 5.64444 z m 8.15308,0 v -5.64444 h -7.52592 v 5.64444 z m -24.459239,-50.1728 v -5.64444 h -7.52592 v 5.64444 z m 8.15308,0 v -5.64444 h -7.52592 v 5.64444 z m 8.153079,0 v -5.64444 h -7.525919 v 5.64444 z m 8.15308,0 v -5.64444 h -7.52592 v 5.64444 z m 8.15309,12.5432 v -5.64444 h -7.52592 v 5.64444 z m 0,-6.2716 v -5.64444 h -7.52592 v 5.64444 z m 8.15308,31.358 v -5.64444 h -7.52592 v 5.64444 z m 0,-6.2716 v -5.64444 h -7.52592 v 5.64444 z m 0,-6.2716 v -5.64444 h -7.52592 v 5.64444 z m 0,-12.5432 v -5.64444 h -7.52592 v 5.64444 z m 0,-6.2716 v -5.64444 h -7.52592 v 5.64444 z m 8.15308,6.2716 v -5.64444 h -7.52592 v 5.64444 z m 0,-6.2716 v -5.64444 h -7.52592 v 5.64444 z m 8.78024,44.52836 H 111.84222 V 25.042861 h 33.23948 z m -0.62716,-6.89876 v -5.64444 h -7.52592 v 5.64444 z m 0,-6.2716 v -5.64444 h -7.52592 v 5.64444 z m 0,-6.2716 v -5.64444 h -7.52592 v 5.64444 z m 0,-6.2716 v -5.64444 h -7.52592 v 5.64444 z m 0,-6.2716 v -5.64444 h -7.52592 v 5.64444 z m 0,-6.2716 v -5.64444 h -7.52592 v 5.64444 z m 0,-6.2716 v -5.64444 h -7.52592 v 5.64444 z m -16.30616,43.9012 v -5.64444 h -7.52592 v 5.64444 z m 8.15308,0 v -5.64444 h -7.52592 v 5.64444 z m 8.15308,0 v -5.64444 h -7.52592 v 5.64444 z m -24.45924,-50.1728 v -5.64444 h -7.52592 v 5.64444 z m 8.15308,0 v -5.64444 h -7.52592 v 5.64444 z m 8.15308,0 v -5.64444 h -7.52592 v 5.64444 z m 8.15308,0 v -5.64444 h -7.52592 v 5.64444 z m -8.15308,43.9012 v -5.64444 h -7.52592 v 5.64444 z m 0,-25.0864 v -5.64444 h -7.52592 v 5.64444 z m 16.30616,-6.2716 v -5.64444 h -7.52592 v 5.64444 z m 0,-6.2716 v -5.64444 h -7.52592 v 5.64444 z m 8.15308,31.358 v -5.64444 h -7.52592 v 5.64444 z m 0,-6.2716 v -5.64444 h -7.52592 v 5.64444 z m 0,-6.2716 v -5.64444 h -7.52592 v 5.64444 z m 0,-12.5432 v -5.64444 h -7.52592 v 5.64444 z m 0,-6.2716 v -5.64444 h -7.52592 v 5.64444 z m 8.15308,6.2716 v -5.64444 h -7.52592 v 5.64444 z m 0,-6.2716 v -5.64444 h -7.52592 v 5.64444 z m 8.78024,44.52836 H 144.45454 V 25.042861 h 33.23948 z m -0.62716,-6.89876 v -5.64444 h -7.52592 v 5.64444 z m 0,-6.2716 v -5.64444 h -7.52592 v 5.64444 z m 0,-6.2716 v -5.64444 h -7.52592 v 5.64444 z m 0,-6.2716 v -5.64444 h -7.52592 v 5.64444 z m 0,-6.2716 v -5.64444 h -7.52592 v 5.64444 z m 0,-6.2716 v -5.64444 h -7.52592 v 5.64444 z m 0,-6.2716 v -5.64444 h -7.52592 v 5.64444 z m -16.30616,43.9012 v -5.64444 h -7.52592 v 5.64444 z m 8.15308,0 v -5.64444 h -7.52592 v 5.64444 z m 8.15308,0 v -5.64444 h -7.52592 v 5.64444 z m -24.45924,-50.1728 v -5.64444 h -7.52592 v 5.64444 z m 8.15308,0 v -5.64444 h -7.52592 v 5.64444 z m 8.15308,0 v -5.64444 h -7.52592 v 5.64444 z m 8.15308,0 v -5.64444 h -7.52592 v 5.64444 z m -8.15308,43.9012 v -5.64444 h -7.52592 v 5.64444 z m 0,-25.0864 v -5.64444 h -7.52592 v 5.64444 z m 16.30616,18.8148 v -5.64444 h -7.52592 v 5.64444 z m 0,-25.0864 v -5.64444 h -7.52592 v 5.64444 z m 0,-6.2716 v -5.64444 h -7.52592 v 5.64444 z m 8.15308,31.358 v -5.64444 h -7.52592 v 5.64444 z m 0,-12.5432 v -5.64444 h -7.52592 v 5.64444 z m 0,-12.5432 v -5.64444 h -7.52592 v 5.64444 z m 0,-6.2716 v -5.64444 h -7.52592 v 5.64444 z m 8.15308,18.8148 v -5.64444 h -7.52592 v 5.64444 z m 0,-12.5432 v -5.64444 h -7.52592 v 5.64444 z m 0,-6.2716 v -5.64444 h -7.52592 v 5.64444 z m 8.78024,44.52836 H 177.06686 V 25.042861 h 33.23948 z m -0.62716,-6.89876 v -5.64444 h -7.52592 v 5.64444 z m 0,-6.2716 v -5.64444 h -7.52592 v 5.64444 z m 0,-6.2716 v -5.64444 h -7.52592 v 5.64444 z m 0,-6.2716 v -5.64444 h -7.52592 v 5.64444 z m 0,-6.2716 v -5.64444 h -7.52592 v 5.64444 z m 0,-6.2716 v -5.64444 h -7.52592 v 5.64444 z m 0,-6.2716 v -5.64444 h -7.52592 v 5.64444 z m -24.45924,43.9012 v -5.64444 h -7.52592 v 5.64444 z m 8.15308,0 v -5.64444 h -7.52592 v 5.64444 z m 8.15308,0 v -5.64444 h -7.52592 v 5.64444 z m 8.15308,0 v -5.64444 h -7.52592 v 5.64444 z m -24.45924,-50.1728 v -5.64444 h -7.52592 v 5.64444 z m 8.15308,0 v -5.64444 h -7.52592 v 5.64444 z m 8.15308,0 v -5.64444 h -7.52592 v 5.64444 z m 8.15308,0 v -5.64444 h -7.52592 v 5.64444 z m 8.15309,43.9012 v -5.64444 h -7.52592 v 5.64444 z m 0,-6.2716 v -5.64444 h -7.52592 v 5.64444 z m 0,-6.2716 v -5.64444 h -7.52592 v 5.64444 z m 0,-6.2716 v -5.64444 h -7.52592 v 5.64444 z m 0,-12.5432 v -5.64444 h -7.52592 v 5.64444 z m 0,-6.2716 v -5.64444 h -7.52592 v 5.64444 z m 16.30616,31.358 v -5.64444 h -7.52592 v 5.64444 z m 0,-6.2716 v -5.64444 h -7.52592 v 5.64444 z m 0,-6.2716 v -5.64444 h -7.52592 v 5.64444 z m 0,-12.5432 v -5.64444 h -7.52592 v 5.64444 z m 0,-6.2716 v -5.64444 h -7.52592 v 5.64444 z m 8.78024,44.52836 H 209.67919 V 25.042861 h 33.23948 z m -0.62716,-6.89876 v -5.64444 h -7.52592 v 5.64444 z m 0,-6.2716 v -5.64444 h -7.52592 v 5.64444 z m 0,-6.2716 v -5.64444 h -7.52592 v 5.64444 z m 0,-6.2716 v -5.64444 h -7.52592 v 5.64444 z m 0,-6.2716 v -5.64444 h -7.52592 v 5.64444 z m 0,-6.2716 v -5.64444 h -7.52592 v 5.64444 z m 0,-6.2716 v -5.64444 h -7.52592 v 5.64444 z m -24.45924,43.9012 v -5.64444 h -7.52592 v 5.64444 z m 8.15308,0 v -5.64444 h -7.52592 v 5.64444 z m 8.15308,0 v -5.64444 h -7.52592 v 5.64444 z m 8.15308,0 v -5.64444 h -7.52592 v 5.64444 z m -24.45924,-50.1728 v -5.64444 h -7.52592 v 5.64444 z m 8.15308,0 v -5.64444 h -7.52592 v 5.64444 z m 8.15308,0 v -5.64444 h -7.52592 v 5.64444 z m 8.15308,0 v -5.64444 h -7.52592 v 5.64444 z m 8.15308,12.5432 v -5.64444 h -7.52592 v 5.64444 z m 0,-6.2716 v -5.64444 h -7.52592 v 5.64444 z m 8.15308,37.6296 v -5.64444 h -7.52592 v 5.64444 z m 0,-6.2716 v -5.64444 h -7.52592 v 5.64444 z m 0,-6.2716 v -5.64444 h -7.52592 v 5.64444 z m 0,-6.2716 v -5.64444 h -7.52592 v 5.64444 z m 0,-12.5432 v -5.64444 h -7.52592 v 5.64444 z m 0,-6.2716 v -5.64444 h -7.52592 v 5.64444 z m 8.15308,37.6296 v -5.64444 h -7.52592 v 5.64444 z m 0,-6.2716 v -5.64444 h -7.52592 v 5.64444 z m 0,-6.2716 v -5.64444 h -7.52592 v 5.64444 z m 0,-18.8148 v -5.64444 h -7.52592 v 5.64444 z m 0,-6.2716 v -5.64444 h -7.52592 v 5.64444 z m 8.78024,44.52836 H 242.29151 V 25.042861 h 33.23948 z m -0.62716,-6.89876 v -5.64444 h -7.52592 v 5.64444 z m 0,-6.2716 v -5.64444 h -7.52592 v 5.64444 z m 0,-6.2716 v -5.64444 h -7.52592 v 5.64444 z m 0,-6.2716 v -5.64444 h -7.52592 v 5.64444 z m 0,-6.2716 v -5.64444 h -7.52592 v 5.64444 z m 0,-6.2716 v -5.64444 h -7.52592 v 5.64444 z m 0,-6.2716 v -5.64444 h -7.52592 v 5.64444 z m -24.45924,43.9012 v -5.64444 h -7.52592 v 5.64444 z m 8.15308,0 v -5.64444 h -7.52592 v 5.64444 z m 8.15308,0 v -5.64444 h -7.52592 v 5.64444 z m 8.15308,0 v -5.64444 h -7.52592 v 5.64444 z m -24.45924,-50.1728 v -5.64444 h -7.52592 v 5.64444 z m 8.15308,0 v -5.64444 h -7.52592 v 5.64444 z m 8.15308,0 v -5.64444 h -7.52592 v 5.64444 z m 8.15308,0 v -5.64444 h -7.52592 v 5.64444 z m 8.15308,25.0864 v -5.64444 h -7.52592 v 5.64444 z m 0,-12.5432 v -5.64444 h -7.52592 v 5.64444 z m 0,-6.2716 v -5.64444 h -7.52592 v 5.64444 z m 8.15308,31.358 v -5.64444 h -7.52592 v 5.64444 z m 0,-12.5432 v -5.64444 h -7.52592 v 5.64444 z m 0,-12.5432 v -5.64444 h -7.52592 v 5.64444 z m 0,-6.2716 v -5.64444 h -7.52592 v 5.64444 z m 8.15308,6.2716 v -5.64444 h -7.52592 v 5.64444 z m 0,-6.2716 v -5.64444 h -7.52592 v 5.64444 z m 8.78024,44.52836 H 274.90383 V 25.042861 h 33.23948 z m -0.62716,-6.89876 v -5.64444 h -7.52592 v 5.64444 z m 0,-6.2716 v -5.64444 h -7.52592 v 5.64444 z m 0,-6.2716 v -5.64444 h -7.52592 v 5.64444 z m 0,-6.2716 v -5.64444 h -7.52592 v 5.64444 z m 0,-6.2716 v -5.64444 h -7.52592 v 5.64444 z m 0,-6.2716 v -5.64444 h -7.52592 v 5.64444 z m 0,-6.2716 v -5.64444 h -7.52592 v 5.64444 z m -24.45924,43.9012 v -5.64444 h -7.52592 v 5.64444 z m 8.15308,0 v -5.64444 h -7.52592 v 5.64444 z m 8.15308,0 v -5.64444 h -7.52592 v 5.64444 z m 8.15308,0 v -5.64444 h -7.52592 v 5.64444 z m -24.45924,-50.1728 v -5.64444 h -7.52592 v 5.64444 z m 8.15308,0 v -5.64444 h -7.52592 v 5.64444 z m 8.15308,0 v -5.64444 h -7.52592 v 5.64444 z m 8.15308,0 v -5.64444 h -7.52592 v 5.64444 z m 8.15308,12.5432 v -5.64444 h -7.52592 v 5.64444 z m 0,-6.2716 v -5.64444 h -7.52592 v 5.64444 z m 8.15308,31.358 v -5.64444 h -7.52592 v 5.64444 z m 0,-6.2716 v -5.64444 h -7.52592 v 5.64444 z m 0,-6.2716 v -5.64444 h -7.52592 v 5.64444 z m 0,-12.5432 v -5.64444 h -7.52592 v 5.64444 z m 0,-6.2716 v -5.64444 h -7.52592 v 5.64444 z m 8.15308,25.0864 v -5.64444 h -7.52592 v 5.64444 z m 0,-18.8148 v -5.64444 h -7.52592 v 5.64444 z m 0,-6.2716 v -5.64444 h -7.52592 v 5.64444 z m 8.78024,44.52836 H 307.51615 V 25.042861 h 33.23948 z m -0.62716,-6.89876 v -5.64444 h -7.52592 v 5.64444 z m 0,-6.2716 v -5.64444 h -7.52592 v 5.64444 z m 0,-6.2716 v -5.64444 h -7.52592 v 5.64444 z m 0,-6.2716 v -5.64444 h -7.52592 v 5.64444 z m 0,-6.2716 v -5.64444 h -7.52592 v 5.64444 z m 0,-6.2716 v -5.64444 h -7.52592 v 5.64444 z m 0,-6.2716 v -5.64444 h -7.52592 v 5.64444 z m -24.45924,43.9012 v -5.64444 h -7.52592 v 5.64444 z m 8.15308,0 v -5.64444 h -7.52592 v 5.64444 z m 8.15308,0 v -5.64444 h -7.52592 v 5.64444 z m 8.15308,0 v -5.64444 h -7.52592 v 5.64444 z m -24.45924,-50.1728 v -5.64444 h -7.52592 v 5.64444 z m 8.15308,0 v -5.64444 h -7.52592 v 5.64444 z m 8.15308,0 v -5.64444 h -7.52592 v 5.64444 z m 8.15308,0 v -5.64444 h -7.52592 v 5.64444 z m 8.15308,43.9012 v -5.64444 h -7.52592 v 5.64444 z m 0,-6.2716 v -5.64444 h -7.52592 v 5.64444 z m 0,-6.2716 v -5.64444 h -7.52592 v 5.64444 z m 0,-6.2716 v -5.64444 h -7.52592 v 5.64444 z m 0,-12.5432 v -5.64444 h -7.52592 v 5.64444 z m 0,-6.2716 v -5.64444 h -7.52592 v 5.64444 z m 16.30616,31.358 v -5.64444 h -7.52592 v 5.64444 z m 0,-6.2716 v -5.64444 h -7.52592 v 5.64444 z m 0,-6.2716 v -5.64444 h -7.52592 v 5.64444 z m 0,-12.5432 v -5.64444 h -7.52592 v 5.64444 z m 0,-6.2716 v -5.64444 h -7.52592 v 5.64444 z m 8.78024,44.52836 H 340.12847 V 25.042861 h 33.23948 z m -0.62716,-6.89876 v -5.64444 h -7.52592 v 5.64444 z m 0,-6.2716 v -5.64444 h -7.52592 v 5.64444 z m 0,-6.2716 v -5.64444 h -7.52592 v 5.64444 z m 0,-6.2716 v -5.64444 h -7.52592 v 5.64444 z m 0,-6.2716 v -5.64444 h -7.52592 v 5.64444 z m 0,-6.2716 v -5.64444 h -7.52592 v 5.64444 z m 0,-6.2716 v -5.64444 h -7.52592 v 5.64444 z m -24.45924,43.9012 v -5.64444 h -7.52592 v 5.64444 z m 8.15308,0 v -5.64444 h -7.52592 v 5.64444 z m 8.15308,0 v -5.64444 h -7.52592 v 5.64444 z m 8.15308,0 v -5.64444 h -7.52592 v 5.64444 z m -24.45924,-50.1728 v -5.64444 h -7.52592 v 5.64444 z m 8.15308,0 v -5.64444 h -7.52592 v 5.64444 z m 8.15308,0 v -5.64444 h -7.52592 v 5.64444 z m 8.15308,0 v -5.64444 h -7.52592 v 5.64444 z m 16.30618,43.9012 v -5.64444 h -7.52592 v 5.64444 z m 0,-6.2716 v -5.64444 h -7.52592 v 5.64444 z m 0,-6.2716 v -5.64444 h -7.52592 v 5.64444 z m 0,-6.2716 v -5.64444 h -7.52592 v 5.64444 z m 0,-6.2716 v -5.64444 h -7.52592 v 5.64444 z m 0,-6.2716 v -5.64444 h -7.52592 v 5.64444 z m 0,-6.2716 v -5.64444 h -7.52592 v 5.64444 z m 0.62716,44.52836 H 372.74081 V 25.042861 h 16.93332 z m -0.62716,-0.62716 v -5.64444 h -7.52592 v 5.64444 z m 0,-50.1728 v -5.64444 h -7.52592 v 5.64444 z"
       id="text2"
       clip-path="url(#clipPath9)"
       style="font-size:56.4444px;font-family:Gridtile;-inkscape-font-specification:'Gridtile, Normal';stroke-width:0.264583"
       aria-label="|appstract|" />
  </g>
</svg>
